<?xml version="1.0" encoding="UTF-8" standalone="no"?>
<svg
   width="50mm"
   height="57.746754mm"
   viewBox="0 0 50 57.746755"
   xml:space="preserve"
   xmlns="http://www.w3.org/2000/svg"
>
    <style>
        path {
            fill: black;
        }
        @media (prefers-color-scheme: dark) {
            path { fill: white; }
        }
    </style>
    <path
     style="fill:currentColor;stroke-width:0.376558"
     d="m 23.335821,57.694001 c -3.026432,-0.82147 -6.463256,-0.94658 -8.890328,-3.16058 -2.591774,-1.40194 -4.9821839,-3.16936 -7.6070806,-4.50134 -1.7882936,-0.65868 1.9635362,5.3593 -0.8481483,2.83606 -0.089308,-1.82957 -1.6769492,-3.60286 -2.3209538,-4.58427 2.1658043,0.0548 -0.8826147,-2.84097 -0.8840758,-4.25556 -1.0057755,-3.07889 -2.09187096,-6.16187 -2.70879376,-9.34261 -0.03268524,-4.86497 -0.20993871,-9.75688 0.12229857,-14.60766 0.58879765,0.65898 0.40651338,3.01153 1.24577489,0.70308 0.5744471,-1.51295 1.244088,-3.44334 0.3446788,-4.01972 0.5908009,-2.76129 2.9197265,-3.96586 4.6593536,-5.92545 -1.0118984,-0.11358 -3.420914,-0.61166 -0.949691,-0.8404196 1.1407002,0.0648 1.424256,-0.14443 1.0442788,-0.70476 1.4067912,0.26097 4.0778836,-2.55386 3.5168126,-2.45522 -0.6330361,0.88612 -2.8929574,2.52842 -1.308171,0.44324 1.876623,-1.75892 4.235575,-2.96626 6.250783,-4.58331 2.117544,-1.09142 4.709323,-0.8019 6.893334,-1.96001999 3.613343,-0.91169 7.392429,-0.84784 11.075242,-0.49267 1.37045,-0.48195 1.980154,2.06084999 3.596752,2.39640999 2.061698,2.04461 3.700705,4.54946 4.974662,7.14396 0.825879,1.7510996 3.785558,3.3220996 3.330996,5.0547096 -0.710252,-1.06556 -2.540216,-3.46296 -1.419281,-0.70673 0.791819,2.51138 3.255756,4.02559 4.042287,6.63143 0.957965,2.47281 0.710859,5.23928 1.687305,7.72412 0.561573,2.7476 -0.07925,5.5594 0.148503,8.34374 -0.279648,1.88974 0.442373,3.8284 0.667641,5.02437 -1.224834,2.19382 -0.370428,4.24512 -2.209685,6.19751 -1.465025,1.90126 -1.639176,4.45902 -3.650708,5.90151 -3.53067,2.13404 -7.812619,2.18976 -11.826691,2.43989 -2.531145,0.81478 -5.17211,1.32595 -7.862449,1.3523 -0.3719,0.003 -0.745529,-0.001 -1.114646,-0.052 z m 3.140989,-0.82502 c 3.127782,-0.84797 6.31976,-1.49842 9.578585,-1.5694 2.68308,-0.30553 5.792694,-0.53594 7.778936,-2.57197 1.778378,-2.531 2.240853,-5.64046 3.423381,-8.43249 2.392752,-1.48644 0.912152,-4.89915 1.304853,-7.26223 -0.09213,-2.9711 -0.03366,-5.99998 -0.297745,-8.94309 -1.322201,-1.81071 -1.326174,-3.91272 -2.032235,-5.87547 -1.977921,-4.54911 -3.993731,-9.11049 -6.342954,-13.4789496 -1.629886,-1.98747 -1.967184,-4.83243 -4.429932,-6.14035 -1.729716,-2.20987999 -3.676413,0.0547 -4.721949,1.52162 1.204918,-1.2156 3.005499,-0.19564 0.815565,0.53346 -2.705898,0.83552 -1.735411,4.2996 -3.266236,6.0345396 -0.579485,-0.8385996 0.977275,-4.5604196 -0.48823,-1.7461896 -0.529802,1.3873396 -0.374261,5.8009696 -1.521988,3.3416396 -0.781072,1.25737 -0.0069,5.18358 -1.236501,5.03436 -0.629081,-2.38208 -1.487471,-4.71257 -1.950947,-6.4287 0.697747,-1.3056996 0.364403,-5.6998196 1.868233,-5.2472696 3.77e-4,3.71138 2.096936,-2.79612 1.819687,0.0287 -1.61371,3.56898 2.724663,-2.52042 -0.390995,-1.96577 -3.319175,-0.62996 -6.826156,-0.96465 -10.152788,-0.27241 -2.74375,1.37471 -4.849324,3.72475 -6.8141476,6.02054 0.6813516,2.0461896 5.3027526,0.9154196 6.7892316,3.1170696 0.970563,1.02157 -0.891735,1.3556 0.777094,2.38546 1.188912,2.32457 4.379052,3.68897 3.919821,6.63182 -0.877377,2.77449 -2.920243,5.05442 -5.021204,6.99077 -0.833764,0.86228 -1.804591,1.31801 -2.998928,1.096 -1.066921,-0.11116 -2.284059,0.23066 -3.2507137,-0.18295 -1.6682619,-1.23898 -3.5321044,-3.11689 -3.1802259,-5.37041 0.1751071,-1.89807 -0.5062334,-4.18509 1.1333196,-5.581 1.9929756,-2.46356 6.023654,-3.90807 8.77202,-1.88575 -0.279289,-1.95101 -3.02047,-3.93928 -5.134299,-4.64087 -1.032477,-0.16385 -2.28355,-1.35179 -3.2139386,-0.98774 -1.9006397,2.05184 -4.5655681,3.86955 -4.8164237,6.88655 -0.6964819,2.78416 -1.5424048,5.53629 -2.33719482,8.29047 -0.38615288,2.63824 0.75201302,5.27733 0.51342952,8.02435 0.3891992,2.38453 0.1465565,-2.0815 0.1172451,-2.75874 -0.1359525,-0.66789 -0.046773,-5.41371 0.4532481,-3.12925 -0.064723,3.8901 0.1835683,7.8402 1.6873685,11.47958 0.8809124,2.53956 0.9068798,5.45125 3.0069034,7.43351 1.4910686,2.0841 3.4657995,3.58973 5.7925945,4.63469 2.262128,1.89046 4.70256,3.83959 7.730024,4.23689 2.068573,0.50654 4.168947,1.0855 6.318036,0.74889 z m 2.431345,-6.80601 c 0.508441,-1.42481 0.701811,-3.14125 1.99916,-4.10254 0.964482,-1.63137 4.618658,-2.93271 5.431015,-1.68483 -2.64272,-0.20312 -5.104664,1.40233 -6.048263,3.88957 -0.417113,0.5042 -0.65416,2.0252 -1.381912,1.8978 z m -9.598219,-0.31944 c -2.427121,-0.63047 -5.602767,-2.21843 -4.437949,-5.26231 0.922301,-2.94673 2.714484,-5.67606 2.663005,-8.87151 0.228315,-2.80205 -0.07871,-5.81868 1.206469,-8.40206 1.86509,-2.22947 4.223955,-4.86056 7.441863,-4.4601 2.903813,-0.39841 5.548073,0.60261 7.946692,2.15086 1.892054,1.62184 4.403751,0.83386 6.345521,2.26608 1.986711,1.83787 3.564308,4.26565 4.448481,6.81176 0.109597,2.35428 0.0048,5.09224 -1.960888,6.72433 -2.115075,0.13917 -4.28135,0.0231 -6.364052,0.32363 -4.420142,1.71979 -8.374526,4.5029 -11.845316,7.712 -1.496807,1.26724 -3.594591,1.51582 -5.443826,1.00732 z m 3.387931,-0.61783 c 1.865659,-1.43877 -4.768547,-0.06 -1.473667,0.22916 0.497101,-0.0197 0.998052,-0.0768 1.473667,-0.22916 z m -1.977359,-0.87894 c 1.169062,-0.66962 -2.507015,-3.02166 -3.351194,-1.30803 -2.729091,1.48803 2.527691,2.01992 3.351194,1.30803 z m 3.845344,-0.36443 c 2.132133,-1.42463 3.894078,-3.34894 6.220903,-4.49318 0.839522,-1.10185 5.13123,-1.62951 2.833958,-3.17795 -2.34709,-2.51926 -3.923043,2.74872 -5.388046,4.10532 -1.891283,-3.26322 -4.288421,0.47487 -5.247255,2.44797 -1.697917,1.85687 0.216035,1.81125 1.58044,1.11784 z m -7.656234,-1.27247 c 1.901647,-3.18538 4.672896,2.85583 6.016869,-0.89077 0.631334,-0.83036 0.906861,-1.76184 0.759925,-2.7974 -0.181577,-2.53041 1.185074,-4.9366 2.940265,-6.65727 1.894549,-2.57466 5.106719,-0.0497 7.031379,-2.71082 1.250535,-1.36523 3.144552,-1.70424 3.882139,0.36021 0.1128,1.35338 -0.462915,2.86041 1.075943,3.54861 1.29451,0.94781 0.0023,-3.71512 2.463155,-2.31114 1.404651,0.19746 3.513815,4.03255 3.247067,0.59061 0.328447,-2.91378 -1.934443,-5.10797 -3.447243,-7.32231 -1.176513,-1.78331 -3.184571,-1.64777 -4.707967,-1.8217 -1.748112,-1.57562 -3.892746,-1.7723 -5.130594,0.44135 -1.452163,0.38985 -3.107242,-1.74972 -2.704807,0.95815 0.131272,3.08688 -3.786981,-2.54084 -3.422427,0.50447 -0.222754,0.85855 0.485722,2.66425 -1.001495,2.22947 -1.365942,0.0341 -3.450579,-0.311 -2.145643,1.56128 -1.238616,1.07508 -4.276526,0.66697 -3.538699,3.36045 -0.161045,3.29998 -1.777994,6.28173 -2.862605,9.31116 -0.247836,1.39819 -0.336418,3.21389 1.544738,1.64565 z m 7.665595,-3.34998 c 1.166763,-1.73366 3.102414,-0.38118 3.858181,-0.13215 0.633549,-1.30086 2.094357,-3.08827 2.397011,-3.96638 -1.121578,0.11788 -3.48831,-0.81332 -0.985671,-0.67222 1.272948,-0.096 2.646952,0.26805 3.75308,-0.54433 0.993493,-0.73321 3.831164,-1.4386 1.413178,-0.0697 -1.890597,-0.0129 -1.256367,3.5092 0.11326,1.31958 1.385942,-1.21995 2.662015,-3.86481 1.695374,-5.50437 -2.245985,-1.9444 -4.114357,2.75269 -6.517224,1.97881 -2.841711,-1.02569 -4.977824,2.67729 -5.664565,5.01037 -0.09608,0.3338 -1.047856,3.4496 -0.06263,2.58039 z m 11.371282,-2.68247 c 1.339484,-0.45139 5.392042,-0.35387 2.666383,-2.36507 -1.204769,-2.07478 -3.438629,1.74902 -3.631897,2.61709 0.32782,-0.0597 0.64608,-0.15964 0.965514,-0.25202 z m 6.946346,-0.77901 c 2.987361,-1.43484 -3.098768,-6.19627 -3.109519,-2.98683 -0.455274,1.87134 1.241848,3.79841 3.109519,2.98683 z M 18.79941,32.711151 c 1.160981,-0.5195 3.324128,-0.52628 1.325398,-1.90997 -1.476303,-3.37327 -2.526758,2.16246 -1.325398,1.90997 z m 5.33921,-2.61205 c 0.324835,-1.68199 -0.743894,-4.45815 -2.257518,-5.03255 -1.321045,1.07126 -3.508314,3.10042 -1.913549,4.63735 1.255923,0.63123 2.821667,0.72916 4.171067,0.3952 z m 3.593548,-4.03332 c 1.135956,-3.32469 -2.84181,-3.53119 -4.696617,-1.95153 -0.334645,1.92874 3.270053,3.39423 4.51329,3.92704 0.131328,-0.64931 0.136336,-1.31695 0.183327,-1.97551 z m 3.807624,-0.34124 c 2.11642,-2.23582 -5.403531,-3.4064 -2.708831,0.0813 0.777284,0.70148 2.118626,1.06638 2.708831,-0.0813 z m 0.494301,22.22563 c -0.448394,-1.6684 4.458241,-3.82372 2.024463,-1.61656 -0.650869,0.16027 -1.354751,2.43696 -2.024463,1.61656 z m -20.481699,-1.38116 c -1.186957,-1.19662 -0.08557,-5.46254 0.74522,-5.14789 -0.551771,1.7323 -0.205978,4.00522 -0.397131,5.45419 z m 1.305116,-4.61874 c 0.583047,-1.36264 0.07838,-5.24945 1.214043,-5.26751 0.365122,1.87654 -0.425952,5.12386 -1.2367,6.02506 l -7.53e-4,-0.29994 z m 20.212984,-18.1026 c -2.398736,-1.4114 -4.83558,-3.36644 -5.71491,-6.09176 0.181888,-1.22595 -0.434707,-2.71466 0.293523,-3.798 1.420916,-1.97093 2.907059,-4.5257696 5.169131,-5.4365496 3.333623,-0.58241 5.486701,2.4129396 7.431741,4.6007796 1.750744,2.23035 3.378977,5.16168 2.23264,8.04131 -1.481282,2.61779 -4.624831,2.58107 -7.240894,2.63492 -0.712282,0.0427 -1.475065,0.30637 -2.171231,0.0493 z m 7.483609,-1.51655 c 2.432038,-1.27753 1.93773,-4.46218 0.763275,-6.44227 -0.612249,-1.06794 -1.956961,-3.87216 -2.253572,-1.19005 -2.234776,1.66944 -5.187699,-0.26501 -4.168018,-3.11489 -0.386488,-1.49013 2.668755,-1.6397196 0.107598,-2.3907496 -2.60378,-0.85619 -4.385679,1.7548696 -5.79119,3.4923896 -1.813888,1.90957 -1.878396,4.97411 -0.225205,6.99587 1.034128,1.54191 2.642664,2.84663 4.418911,3.31063 2.089062,-0.0587 4.250838,0.11955 6.295899,-0.0825 0.284102,-0.19284 0.5682,-0.38567 0.852302,-0.57852 z m -2.454452,-7.88894 c 1.65091,-0.84518 -0.468533,-3.74993 -1.863048,-3.68193 -1.810252,0.58332 -0.869289,5.08938 1.863048,3.68193 z m -16.209045,3.42147 c -0.831775,-0.92369 -2.474589,-5.31377 -0.43369,-2.31969 0.323453,0.29156 1.783677,3.54349 0.43369,2.31969 z m 0.980859,-1.76762 c -0.810022,-1.13569 -1.573773,-5.49669 -0.08465,-2.25821 0.161506,0.4929 1.696312,3.23325 0.08465,2.25821 z m -6.548207,-5.14674 c 0.350108,-0.9590696 3.069028,-2.9264196 3.762411,-2.3186296 1.092116,-0.57261 3.250464,-0.62981 0.973587,0.44505 -1.837238,-0.0242 -3.118154,1.7236996 -4.735998,1.8735796 z m -1.680745,17.7417 c 2.289157,-1.84745 4.233255,-4.18564 5.667841,-6.74743 1.283864,-1.84928 -2.562689,-4.70219 -3.005289,-3.81855 0.753794,0.83896 3.376642,2.82218 0.660073,1.50846 -1.460199,-2.00717 -3.234593,-4.15544 -6.064858,-3.18576 -1.270446,0.3271 -4.7524385,2.1902 -1.684491,2.59259 2.71404,2.70093 -0.5315683,5.55274 -3.1017059,5.39406 -0.03261,2.80774 2.649693,5.25657 5.4675909,4.70527 0.751418,-0.0371 1.479621,0.15699 2.060839,-0.44864 z m -4.9561309,-5.70034 c 3.5439809,-3.07073 -3.9953537,-5.62325 -2.5363753,-0.67744 -0.2622503,1.57357 1.7581463,0.90487 2.5363753,0.67744 z M 47.24797,21.870031 c -0.114707,-1.10745 -2.319041,-4.703 -1.08082,-1.63119 0.09499,0.26696 1.449286,3.90292 1.08082,1.63119 z M 29.468798,2.9447314 c 0.491167,-1.01531 3.59427,-2.19970999 0.694027,-2.15630999 -3.520654,0.0596 -7.251818,-0.26863 -10.495953,1.37785999 2.617987,0.21926 5.240086,0.49511 7.811993,1.07369 0.882427,0.22834 1.578472,-3.23678999 2.167597,-1.5428 -0.376543,0.52072 -1.214667,3.00991 -0.177664,1.24756 z"
     id="path1" />
</svg>
