<?xml version="1.0" encoding="UTF-8"?>
<svg width="50.205mm" height="57.947mm" version="1.1" viewBox="0 0 50.205 57.947" xml:space="preserve" xmlns="http://www.w3.org/2000/svg">
    <style>
        path {
            fill: black;
        }
        @media (prefers-color-scheme: dark) {
            path { fill: white; }
        }
    </style>
    <g transform="translate(-80.329 -16.398)" stroke="#fff"><path d="m109.1 16.586c1.7854 0.05898 3.7173-0.02742 5.3904 0.43053 0.77251 0.95815 1.6751 1.7778 2.7057 2.4007 2.9358 2.8642 4.3064 6.8858 7.1557 9.8186 0.36035 0.50758 1.0634 1.2886 0.90491 1.8687-0.40373-0.3206-1.1493-1.7997-1.5282-0.81162 1.1038 3.0725 4.0954 5.1843 4.5825 8.5379 0.38861 2.2649 0.8069 4.5273 1.3115 6.7648 0.2916 4.1249-0.35805 8.3535 0.60579 12.43-0.22075 1.5644-0.69195 3.1133-1.019 4.6506-0.84069 1.9099-2.1216 3.6058-2.9782 5.5194-0.69193 1.8085-2.3958 2.8412-4.193 3.3319-3.9599 1.2277-8.1797 0.94253-12.18 2.0566-3.1782 0.76927-6.478 0.79408-9.5981-0.26703-2.3504-0.43306-4.5033-1.4927-6.403-2.9166-2.1863-1.2699-4.2551-2.8308-6.5921-3.7984-1.0044 0.11329-0.23419 1.4037-0.09788 1.966 0.1911 0.36397 0.48773 1.8401-0.31982 1.0642-0.7235-1.2849-1.1022-2.7712-2.0635-3.9445-0.1938-0.40148-0.85878-1.0156-0.0443-1.0795 0.41848-0.94386-0.71124-1.821-0.90507-2.7462-1.2928-3.5864-2.6775-7.2105-3.2481-10.984-0.16312-4.6562-0.11387-9.3759 0.13896-14.024 0.13599 0.95674 0.98377 2.1768 1.196 0.47014 0.17968-1.197 1.2417-2.572 0.59766-3.7654-0.49078-0.90522 0.49776-1.9205 0.94615-2.6713 0.8913-1.3007 2.2722-2.1868 3.2719-3.3444-0.27896-0.55442-1.3566-0.32996-1.653-0.82169 0.64709-0.15484 1.9514 0.07526 1.9515-0.88493 0.91548 0.02778 1.7086-0.61067 1.8589-1.4815 1.9111-2.1347 4.4285-3.6379 6.8285-5.1609 2.0712-0.91517 4.4585-0.99973 6.5904-1.8512 2.2162-0.58804 4.5144-0.73419 6.7874-0.75684z" fill="#fff" stroke-linejoin="bevel" stroke-width=".15589" style="paint-order:fill markers stroke"/><path d="m103.76 74.192c-3.0264-0.82147-6.4633-0.94658-8.8903-3.1606-2.5918-1.4019-4.9822-3.1694-7.6071-4.5013-1.7883-0.65868 1.9635 5.3593-0.84815 2.8361-0.08931-1.8296-1.6769-3.6029-2.321-4.5843 2.1658 0.0548-0.88262-2.841-0.88408-4.2556-1.0058-3.0789-2.0919-6.1619-2.7088-9.3426-0.03269-4.865-0.20994-9.7569 0.1223-14.608 0.5888 0.65898 0.40651 3.0115 1.2458 0.70308 0.57445-1.513 1.2441-3.4433 0.34468-4.0197 0.5908-2.7613 2.9197-3.9659 4.6594-5.9254-1.0119-0.11358-3.4209-0.61166-0.94969-0.84042 1.1407 0.0648 1.4243-0.14443 1.0443-0.70476 1.4068 0.26097 4.0779-2.5539 3.5168-2.4552-0.63304 0.88612-2.893 2.5284-1.3082 0.44324 1.8766-1.7589 4.2356-2.9663 6.2508-4.5833 2.1175-1.0914 4.7093-0.8019 6.8933-1.96 3.6133-0.91169 7.3924-0.84784 11.075-0.49267 1.3704-0.48195 1.9802 2.0608 3.5968 2.3964 2.0617 2.0446 3.7007 4.5495 4.9747 7.144 0.82588 1.7511 3.7856 3.3221 3.331 5.0547-0.71026-1.0656-2.5402-3.463-1.4193-0.70673 0.79181 2.5114 3.2558 4.0256 4.0423 6.6314 0.95797 2.4728 0.71086 5.2393 1.6873 7.7241 0.56157 2.7476-0.0793 5.5594 0.1485 8.3437-0.27965 1.8897 0.44237 3.8284 0.66764 5.0244-1.2248 2.1938-0.37043 4.2451-2.2097 6.1975-1.465 1.9013-1.6392 4.459-3.6507 5.9015-3.5307 2.134-7.8126 2.1898-11.827 2.4399-2.5311 0.81478-5.1721 1.326-7.8624 1.3523-0.3719 3e-3 -0.74553-1e-3 -1.1146-0.052zm3.141-0.82502c3.1278-0.84797 6.3198-1.4984 9.5786-1.5694 2.6831-0.30553 5.7927-0.53594 7.7789-2.572 1.7784-2.531 2.2409-5.6405 3.4234-8.4325 2.3928-1.4864 0.91216-4.8992 1.3049-7.2622-0.0921-2.9711-0.0337-6-0.29775-8.9431-1.3222-1.8107-1.3262-3.9127-2.0322-5.8755-1.9779-4.5491-3.9937-9.1105-6.343-13.479-1.6299-1.9875-1.9672-4.8324-4.4299-6.1404-1.7297-2.2099-3.6764 0.0547-4.7219 1.5216 1.2049-1.2156 3.0055-0.19564 0.81556 0.53346-2.7059 0.83552-1.7354 4.2996-3.2662 6.0345-0.57948-0.8386 0.97728-4.5604-0.48823-1.7462-0.5298 1.3873-0.37426 5.801-1.522 3.3416-0.78108 1.2574-7e-3 5.1836-1.2365 5.0344-0.62909-2.3821-1.4875-4.7126-1.951-6.4287 0.69775-1.3057 0.3644-5.6998 1.8682-5.2473 3.8e-4 3.7114 2.0969-2.7961 1.8197 0.0287-1.6137 3.569 2.7247-2.5204-0.391-1.9658-3.3192-0.62996-6.8262-0.96465-10.153-0.27241-2.7438 1.3747-4.8493 3.7248-6.8141 6.0205 0.68135 2.0462 5.3028 0.91542 6.7892 3.1171 0.97056 1.0216-0.89174 1.3556 0.77709 2.3855 1.1889 2.3246 4.3791 3.689 3.9198 6.6318-0.87737 2.7745-2.9202 5.0544-5.0212 6.9908-0.83376 0.86228-1.8046 1.318-2.9989 1.096-1.0669-0.11116-2.2841 0.23066-3.2507-0.18295-1.6683-1.239-3.5321-3.1169-3.1802-5.3704 0.17511-1.8981-0.50623-4.1851 1.1333-5.581 1.993-2.4636 6.0237-3.9081 8.772-1.8858-0.27929-1.951-3.0205-3.9393-5.1343-4.6409-1.0325-0.16385-2.2836-1.3518-3.2139-0.98774-1.9006 2.0518-4.5656 3.8696-4.8164 6.8866-0.69648 2.7842-1.5424 5.5363-2.3372 8.2905-0.38615 2.6382 0.75201 5.2773 0.51343 8.0244 0.3892 2.3845 0.14656-2.0815 0.11724-2.7587-0.13595-0.66789-0.04677-5.4137 0.45325-3.1292-0.06472 3.8901 0.18357 7.8402 1.6874 11.48 0.88091 2.5396 0.90688 5.4512 3.0069 7.4335 1.4911 2.0841 3.4658 3.5897 5.7926 4.6347 2.2621 1.8905 4.7026 3.8396 7.73 4.2369 2.0686 0.50654 4.169 1.0855 6.318 0.74889zm2.4313-6.806c0.50844-1.4248 0.70181-3.1412 1.9992-4.1025 0.96448-1.6314 4.6186-2.9327 5.431-1.6848-2.6427-0.20312-5.1047 1.4023-6.0483 3.8896-0.41711 0.5042-0.65416 2.0252-1.3819 1.8978zm-9.5982-0.31944c-2.4271-0.63047-5.6028-2.2184-4.4379-5.2623 0.9223-2.9467 2.7145-5.6761 2.663-8.8715 0.22832-2.802-0.07871-5.8187 1.2065-8.4021 1.8651-2.2295 4.224-4.8606 7.4419-4.4601 2.9038-0.39841 5.5481 0.60261 7.9467 2.1509 1.892 1.6218 4.4038 0.83386 6.3455 2.2661 1.9867 1.8379 3.5643 4.2656 4.4485 6.8118 0.1096 2.3543 5e-3 5.0922-1.9609 6.7243-2.1151 0.13917-4.2814 0.0231-6.364 0.32363-4.4201 1.7198-8.3745 4.5029-11.845 7.712-1.4968 1.2672-3.5946 1.5158-5.4438 1.0073zm3.3879-0.61783c1.8657-1.4388-4.7685-0.06-1.4737 0.22916 0.4971-0.0197 0.99805-0.0768 1.4737-0.22916zm-1.9774-0.87894c1.1691-0.66962-2.507-3.0217-3.3512-1.308-2.7291 1.488 2.5277 2.0199 3.3512 1.308zm3.8454-0.36443c2.1321-1.4246 3.8941-3.3489 6.2209-4.4932 0.83952-1.1018 5.1312-1.6295 2.834-3.178-2.3471-2.5193-3.923 2.7487-5.388 4.1053-1.8913-3.2632-4.2884 0.47487-5.2472 2.448-1.6979 1.8569 0.21603 1.8112 1.5804 1.1178zm-7.6562-1.2725c1.9016-3.1854 4.6729 2.8558 6.0169-0.89077 0.63134-0.83036 0.90686-1.7618 0.75993-2.7974-0.18158-2.5304 1.1851-4.9366 2.9403-6.6573 1.8946-2.5747 5.1067-0.0497 7.0314-2.7108 1.2505-1.3652 3.1446-1.7042 3.8821 0.36021 0.1128 1.3534-0.46292 2.8604 1.0759 3.5486 1.2945 0.94781 2e-3 -3.7151 2.4632-2.3111 1.4047 0.19746 3.5138 4.0326 3.2471 0.59061 0.32845-2.9138-1.9344-5.108-3.4472-7.3223-1.1765-1.7833-3.1846-1.6478-4.708-1.8217-1.7481-1.5756-3.8927-1.7723-5.1306 0.44135-1.4522 0.38985-3.1072-1.7497-2.7048 0.95815 0.13128 3.0869-3.787-2.5408-3.4224 0.50447-0.22276 0.85855 0.48572 2.6642-1.0015 2.2295-1.3659 0.0341-3.4506-0.311-2.1456 1.5613-1.2386 1.0751-4.2765 0.66697-3.5387 3.3604-0.16104 3.3-1.778 6.2817-2.8626 9.3112-0.24784 1.3982-0.33642 3.2139 1.5447 1.6456zm7.6656-3.35c1.1668-1.7337 3.1024-0.38118 3.8582-0.13215 0.63355-1.3009 2.0944-3.0883 2.397-3.9664-1.1216 0.11788-3.4883-0.81332-0.98567-0.67222 1.2729-0.096 2.647 0.26805 3.7531-0.54433 0.99349-0.73321 3.8312-1.4386 1.4132-0.0697-1.8906-0.0129-1.2564 3.5092 0.11326 1.3196 1.386-1.22 2.662-3.8648 1.6954-5.5044-2.246-1.9444-4.1144 2.7527-6.5172 1.9788-2.8417-1.0257-4.9778 2.6773-5.6646 5.0104-0.0961 0.3338-1.0478 3.4496-0.0626 2.5804zm11.371-2.6825c1.3395-0.45139 5.392-0.35387 2.6664-2.3651-1.2048-2.0748-3.4386 1.749-3.6319 2.6171 0.32782-0.0597 0.64608-0.15964 0.96552-0.25202zm6.9463-0.77901c2.9874-1.4348-3.0988-6.1963-3.1095-2.9868-0.45527 1.8713 1.2418 3.7984 3.1095 2.9868zm-24.093-7.0872c1.161-0.5195 3.3241-0.52628 1.3254-1.91-1.4763-3.3733-2.5268 2.1625-1.3254 1.91zm5.3392-2.612c0.32483-1.682-0.7439-4.4582-2.2575-5.0326-1.321 1.0713-3.5083 3.1004-1.9136 4.6374 1.2559 0.63123 2.8217 0.72916 4.1711 0.3952zm3.5935-4.0333c1.136-3.3247-2.8418-3.5312-4.6966-1.9515-0.33465 1.9287 3.27 3.3942 4.5133 3.927 0.13132-0.64931 0.13633-1.317 0.18332-1.9755zm3.8076-0.34124c2.1164-2.2358-5.4035-3.4064-2.7088 0.0813 0.77728 0.70148 2.1186 1.0664 2.7088-0.0813zm0.4943 22.226c-0.44839-1.6684 4.4582-3.8237 2.0245-1.6166-0.65087 0.16027-1.3548 2.437-2.0245 1.6166zm-20.482-1.3812c-1.187-1.1966-0.08557-5.4625 0.74522-5.1479-0.55177 1.7323-0.20598 4.0052-0.39713 5.4542zm1.3051-4.6187c0.58305-1.3626 0.07838-5.2494 1.214-5.2675 0.36512 1.8765-0.42595 5.1239-1.2367 6.0251l-7.53e-4 -0.29994zm20.213-18.103c-2.3987-1.4114-4.8356-3.3664-5.7149-6.0918 0.18189-1.226-0.43471-2.7147 0.29352-3.798 1.4209-1.9709 2.9071-4.5258 5.1691-5.4366 3.3336-0.58241 5.4867 2.4129 7.4317 4.6008 1.7507 2.2304 3.379 5.1617 2.2326 8.0413-1.4813 2.6178-4.6248 2.5811-7.2409 2.6349-0.71229 0.0427-1.4751 0.30637-2.1712 0.0493zm7.4836-1.5166c2.432-1.2775 1.9377-4.4622 0.76328-6.4423-0.61225-1.0679-1.957-3.8722-2.2536-1.19-2.2348 1.6694-5.1877-0.26501-4.168-3.1149-0.38649-1.4901 2.6688-1.6397 0.1076-2.3908-2.6038-0.85619-4.3857 1.7549-5.7912 3.4924-1.8139 1.9096-1.8784 4.9741-0.2252 6.9959 1.0341 1.5419 2.6427 2.8466 4.4189 3.3106 2.0891-0.0587 4.2508 0.11955 6.2959-0.0825 0.2841-0.19284 0.5682-0.38567 0.8523-0.57852zm-2.4544-7.8889c1.6509-0.84518-0.46853-3.7499-1.863-3.6819-1.8102 0.58332-0.86928 5.0894 1.863 3.6819zm-16.209 3.4215c-0.83177-0.92369-2.4746-5.3138-0.43369-2.3197 0.32345 0.29156 1.7837 3.5435 0.43369 2.3197zm0.98086-1.7676c-0.81002-1.1357-1.5738-5.4967-0.0847-2.2582 0.16151 0.4929 1.6963 3.2332 0.0847 2.2582zm-6.5482-5.1467c0.35011-0.95907 3.069-2.9264 3.7624-2.3186 1.0921-0.57261 3.2505-0.62981 0.97359 0.44505-1.8372-0.0242-3.1182 1.7237-4.736 1.8736zm-1.6807 17.742c2.2892-1.8474 4.2333-4.1856 5.6678-6.7474 1.2839-1.8493-2.5627-4.7022-3.0053-3.8186 0.75379 0.83896 3.3766 2.8222 0.66007 1.5085-1.4602-2.0072-3.2346-4.1554-6.0649-3.1858-1.2704 0.3271-4.7524 2.1902-1.6845 2.5926 2.714 2.7009-0.53157 5.5527-3.1017 5.3941-0.03261 2.8077 2.6497 5.2566 5.4676 4.7053 0.75142-0.0371 1.4796 0.15699 2.0608-0.44864zm-4.9561-5.7003c3.544-3.0707-3.9954-5.6232-2.5364-0.67744-0.26225 1.5736 1.7581 0.90487 2.5364 0.67744zm37.562-1.1206c-0.11471-1.1074-2.319-4.703-1.0808-1.6312 0.095 0.26696 1.4493 3.9029 1.0808 1.6312zm-17.779-18.925c0.49117-1.0153 3.5943-2.1997 0.69403-2.1563-3.5206 0.0596-7.2518-0.26863-10.496 1.3779 2.618 0.21926 5.2401 0.49511 7.812 1.0737 0.88243 0.22834 1.5785-3.2368 2.1676-1.5428-0.37655 0.52072-1.2147 3.0099-0.17767 1.2476z" stroke-width=".2"/></g>
</svg>
