<?xml version="1.0" encoding="UTF-8" standalone="no"?>
<svg
   width="50.205032mm"
   height="57.946861mm"
   viewBox="0 0 50.205032 57.946863"
   xml:space="preserve"
   version="1.1"
   id="svg1"
   xmlns="http://www.w3.org/2000/svg"
><defs
   id="defs1" />&#10;    <style
   id="style1">&#10;        path {&#10;            fill: black;&#10;        }&#10;        @media (prefers-color-scheme: dark) {&#10;            path { fill: white; }&#10;        }&#10;    </style>&#10;    <g
   id="g2"
   style="stroke:#ffffff;stroke-opacity:1"
   transform="translate(-80.328817,-16.398131)"><path
     style="fill:#ffffff;fill-opacity:1;stroke:#ffffff;stroke-width:0.155889;stroke-linejoin:bevel;stroke-dasharray:none;stroke-opacity:1;paint-order:fill markers stroke"
     d="m 109.09536,16.585636 c 1.78543,0.05898 3.7173,-0.02742 5.39035,0.430526 0.77251,0.958151 1.67508,1.777844 2.7057,2.400677 2.93576,2.864214 4.30637,6.885783 7.1557,9.818609 0.36035,0.507581 1.06338,1.288599 0.90491,1.868712 -0.40373,-0.320604 -1.14926,-1.799697 -1.52818,-0.81162 1.10381,3.07251 4.09537,5.184272 4.58253,8.537915 0.38861,2.264912 0.8069,4.527288 1.31148,6.76484 0.2916,4.124923 -0.35805,8.353533 0.60579,12.429659 -0.22075,1.564426 -0.69195,3.113259 -1.01905,4.6506 -0.84069,1.909939 -2.12163,3.605789 -2.97822,5.519414 -0.69193,1.808475 -2.39575,2.841223 -4.19303,3.331869 -3.95988,1.22772 -8.17973,0.942531 -12.18034,2.056641 -3.17815,0.769268 -6.478,0.794083 -9.59812,-0.267031 -2.350431,-0.433057 -4.503277,-1.492684 -6.402964,-2.91656 -2.186307,-1.269897 -4.255074,-2.830817 -6.592146,-3.798351 -1.004388,0.113292 -0.234193,1.403718 -0.09788,1.966013 0.191103,0.363966 0.487732,1.840056 -0.319816,1.064168 -0.723505,-1.284904 -1.102238,-2.771185 -2.063488,-3.944512 -0.193804,-0.401476 -0.858779,-1.015611 -0.0443,-1.079473 0.418483,-0.943864 -0.711237,-1.821024 -0.905068,-2.746214 -1.292805,-3.586385 -2.677504,-7.210515 -3.248089,-10.98365 -0.163118,-4.656236 -0.113871,-9.375852 0.138962,-14.024302 0.135988,0.956743 0.983769,2.1768 1.195962,0.470142 0.179676,-1.197044 1.241679,-2.572033 0.597656,-3.765356 -0.49078,-0.905215 0.497764,-1.920497 0.946153,-2.671297 0.891297,-1.300654 2.272157,-2.186824 3.271853,-3.344354 -0.27896,-0.554421 -1.356648,-0.329958 -1.653045,-0.82169 0.647086,-0.154836 1.951366,0.07526 1.951511,-0.884926 0.91548,0.02778 1.708571,-0.610668 1.85887,-1.481459 1.911133,-2.134722 4.428501,-3.637876 6.82848,-5.160933 2.071151,-0.915171 4.458499,-0.999727 6.590429,-1.851217 2.21616,-0.588043 4.51445,-0.734193 6.7874,-0.75684 z"
     id="path2" /><path
     d="m 103.7647,74.192232 c -3.02644,-0.82147 -6.46326,-0.94658 -8.890332,-3.16058 -2.591774,-1.40194 -4.982184,-3.16936 -7.60708,-4.50134 -1.788294,-0.65868 1.963536,5.3593 -0.848149,2.83606 -0.08931,-1.82957 -1.676949,-3.60286 -2.320953,-4.58427 2.165804,0.0548 -0.882615,-2.84097 -0.884076,-4.25556 -1.005776,-3.07889 -2.091871,-6.16187 -2.708794,-9.34261 -0.03269,-4.86497 -0.209939,-9.75688 0.122299,-14.60766 0.588797,0.65898 0.406513,3.01153 1.245774,0.70308 0.574448,-1.51295 1.244088,-3.44334 0.344679,-4.01972 0.590801,-2.76129 2.919727,-3.96586 4.659354,-5.92545 -1.011899,-0.11358 -3.420914,-0.61166 -0.949691,-0.84042 1.1407,0.0648 1.424256,-0.14443 1.044279,-0.70476 1.406791,0.26097 4.077883,-2.55386 3.516812,-2.45522 -0.633036,0.88612 -2.892957,2.52842 -1.308171,0.44324 1.876623,-1.75892 4.235575,-2.96626 6.250783,-4.58331 2.117544,-1.09142 4.709326,-0.8019 6.893336,-1.96002 3.61334,-0.91169 7.39243,-0.84784 11.07524,-0.49267 1.37045,-0.48195 1.98015,2.06085 3.59675,2.39641 2.0617,2.04461 3.7007,4.54946 4.97466,7.14396 0.82588,1.7511 3.78556,3.3221 3.331,5.05471 -0.71026,-1.06556 -2.54022,-3.46296 -1.41928,-0.70673 0.79181,2.51138 3.25575,4.02559 4.04228,6.63143 0.95797,2.47281 0.71086,5.23928 1.68731,7.72412 0.56157,2.7476 -0.0793,5.5594 0.1485,8.34374 -0.27965,1.88974 0.44237,3.8284 0.66764,5.02437 -1.22483,2.19382 -0.37043,4.24512 -2.20968,6.19751 -1.46503,1.90126 -1.63918,4.45902 -3.65071,5.90151 -3.53067,2.13404 -7.81262,2.18976 -11.82669,2.43989 -2.53114,0.81478 -5.17211,1.32595 -7.86245,1.3523 -0.3719,0.003 -0.74553,-0.001 -1.11464,-0.052 z m 3.14099,-0.82502 c 3.12778,-0.84797 6.31975,-1.49842 9.57858,-1.5694 2.68308,-0.30553 5.79269,-0.53594 7.77893,-2.57197 1.77838,-2.531 2.24086,-5.64046 3.42338,-8.43249 2.39276,-1.48644 0.91216,-4.89915 1.30486,-7.26223 -0.0921,-2.9711 -0.0337,-5.99998 -0.29775,-8.94309 -1.3222,-1.81071 -1.32617,-3.91272 -2.03223,-5.87547 -1.97792,-4.54911 -3.99373,-9.11049 -6.34296,-13.47895 -1.62988,-1.98747 -1.96718,-4.83243 -4.42993,-6.14035 -1.72972,-2.20988 -3.67641,0.0547 -4.72194,1.52162 1.20491,-1.2156 3.00549,-0.19564 0.81556,0.53346 -2.7059,0.83552 -1.73541,4.2996 -3.26624,6.03454 -0.57948,-0.8386 0.97728,-4.56042 -0.48823,-1.74619 -0.5298,1.38734 -0.37426,5.80097 -1.52198,3.34164 -0.78108,1.25737 -0.007,5.18358 -1.2365,5.03436 -0.62909,-2.38208 -1.48748,-4.71257 -1.95095,-6.4287 0.69775,-1.3057 0.3644,-5.69982 1.86823,-5.24727 3.8e-4,3.71138 2.09694,-2.79612 1.81969,0.0287 -1.61371,3.56898 2.72466,-2.52042 -0.391,-1.96577 -3.31917,-0.62996 -6.826153,-0.96465 -10.152785,-0.27241 -2.74375,1.37471 -4.849324,3.72475 -6.814147,6.02054 0.681351,2.04619 5.302752,0.91542 6.789231,3.11707 0.970563,1.02157 -0.891735,1.3556 0.777094,2.38546 1.188912,2.32457 4.379057,3.68897 3.919817,6.63182 -0.87737,2.77449 -2.920239,5.05442 -5.0212,6.99077 -0.833764,0.86228 -1.804591,1.31801 -2.998928,1.096 -1.066921,-0.11116 -2.284059,0.23066 -3.250713,-0.18295 -1.668262,-1.23898 -3.532105,-3.11689 -3.180226,-5.37041 0.175107,-1.89807 -0.506234,-4.18509 1.133319,-5.581 1.992976,-2.46356 6.023654,-3.90807 8.77202,-1.88575 -0.279289,-1.95101 -3.02047,-3.93928 -5.134299,-4.64087 -1.032477,-0.16385 -2.28355,-1.35179 -3.213938,-0.98774 -1.90064,2.05184 -4.565568,3.86955 -4.816424,6.88655 -0.696482,2.78416 -1.542405,5.53629 -2.337195,8.29047 -0.386153,2.63824 0.752013,5.27733 0.51343,8.02435 0.389199,2.38453 0.146556,-2.0815 0.117245,-2.75874 -0.135953,-0.66789 -0.04677,-5.41371 0.453248,-3.12925 -0.06472,3.8901 0.183568,7.8402 1.687368,11.47958 0.880913,2.53956 0.90688,5.45125 3.006904,7.43351 1.491068,2.0841 3.465799,3.58973 5.792594,4.63469 2.262128,1.89046 4.70256,3.83959 7.730025,4.23689 2.06857,0.50654 4.16895,1.0855 6.31804,0.74889 z m 2.43134,-6.80601 c 0.50844,-1.42481 0.70181,-3.14125 1.99916,-4.10254 0.96448,-1.63137 4.61865,-2.93271 5.43101,-1.68483 -2.64272,-0.20312 -5.10466,1.40233 -6.04826,3.88957 -0.41711,0.5042 -0.65416,2.0252 -1.38191,1.8978 z m -9.598219,-0.31944 c -2.427121,-0.63047 -5.602767,-2.21843 -4.437949,-5.26231 0.922301,-2.94673 2.714484,-5.67606 2.663005,-8.87151 0.228315,-2.80205 -0.07871,-5.81868 1.206469,-8.40206 1.865094,-2.22947 4.223954,-4.86056 7.441864,-4.4601 2.90381,-0.39841 5.54807,0.60261 7.94669,2.15086 1.89205,1.62184 4.40375,0.83386 6.34552,2.26608 1.98671,1.83787 3.56431,4.26565 4.44848,6.81176 0.1096,2.35428 0.005,5.09224 -1.96089,6.72433 -2.11507,0.13917 -4.28135,0.0231 -6.36405,0.32363 -4.42014,1.71979 -8.37452,4.5029 -11.84531,7.712 -1.49681,1.26724 -3.59459,1.51582 -5.443829,1.00732 z m 3.387929,-0.61783 c 1.86566,-1.43877 -4.768545,-0.06 -1.47366,0.22916 0.4971,-0.0197 0.99805,-0.0768 1.47366,-0.22916 z m -1.97736,-0.87894 c 1.16907,-0.66962 -2.507012,-3.02166 -3.351191,-1.30803 -2.729091,1.48803 2.527691,2.01992 3.351191,1.30803 z m 3.84535,-0.36443 c 2.13213,-1.42463 3.89408,-3.34894 6.2209,-4.49318 0.83952,-1.10185 5.13123,-1.62951 2.83395,-3.17795 -2.34709,-2.51926 -3.92303,2.74872 -5.38804,4.10532 -1.89128,-3.26322 -4.28842,0.47487 -5.24725,2.44797 -1.69792,1.85687 0.21603,1.81125 1.58044,1.11784 z m -7.656237,-1.27247 c 1.901647,-3.18538 4.672897,2.85583 6.016867,-0.89077 0.63134,-0.83036 0.90686,-1.76184 0.75993,-2.7974 -0.18158,-2.53041 1.18507,-4.9366 2.94026,-6.65727 1.89455,-2.57466 5.10672,-0.0497 7.03138,-2.71082 1.25053,-1.36523 3.14455,-1.70424 3.88214,0.36021 0.1128,1.35338 -0.46292,2.86041 1.07594,3.54861 1.29451,0.94781 0.002,-3.71512 2.46315,-2.31114 1.40466,0.19746 3.51382,4.03255 3.24707,0.59061 0.32845,-2.91378 -1.93444,-5.10797 -3.44724,-7.32231 -1.17651,-1.78331 -3.18457,-1.64777 -4.70797,-1.8217 -1.74811,-1.57562 -3.89274,-1.7723 -5.13059,0.44135 -1.45216,0.38985 -3.10724,-1.74972 -2.70481,0.95815 0.13128,3.08688 -3.78698,-2.54084 -3.42242,0.50447 -0.22276,0.85855 0.48572,2.66425 -1.0015,2.22947 -1.36594,0.0341 -3.45058,-0.311 -2.14564,1.56128 -1.23862,1.07508 -4.276527,0.66697 -3.5387,3.36045 -0.161045,3.29998 -1.777994,6.28173 -2.862605,9.31116 -0.247836,1.39819 -0.336418,3.21389 1.544738,1.64565 z m 7.665597,-3.34998 c 1.16676,-1.73366 3.10241,-0.38118 3.85818,-0.13215 0.63355,-1.30086 2.09436,-3.08827 2.39701,-3.96638 -1.12158,0.11788 -3.48831,-0.81332 -0.98567,-0.67222 1.27294,-0.096 2.64695,0.26805 3.75308,-0.54433 0.99349,-0.73321 3.83116,-1.4386 1.41317,-0.0697 -1.89059,-0.0129 -1.25636,3.5092 0.11326,1.31958 1.38595,-1.21995 2.66202,-3.86481 1.69538,-5.50437 -2.24599,-1.9444 -4.11436,2.75269 -6.51722,1.97881 -2.84171,-1.02569 -4.97783,2.67729 -5.66457,5.01037 -0.0961,0.3338 -1.04785,3.4496 -0.0626,2.58039 z m 11.37128,-2.68247 c 1.33948,-0.45139 5.39204,-0.35387 2.66638,-2.36507 -1.20477,-2.07478 -3.43863,1.74902 -3.6319,2.61709 0.32782,-0.0597 0.64608,-0.15964 0.96552,-0.25202 z m 6.94634,-0.77901 c 2.98736,-1.43484 -3.09877,-6.19627 -3.10952,-2.98683 -0.45527,1.87134 1.24185,3.79841 3.10952,2.98683 z m -24.093425,-7.08725 c 1.160985,-0.5195 3.324125,-0.52628 1.325395,-1.90997 -1.4763,-3.37327 -2.526755,2.16246 -1.325395,1.90997 z m 5.339215,-2.61205 c 0.32483,-1.68199 -0.7439,-4.45815 -2.25752,-5.03255 -1.32105,1.07126 -3.508317,3.10042 -1.91355,4.63735 1.25592,0.63123 2.82167,0.72916 4.17107,0.3952 z m 3.59354,-4.03332 c 1.13596,-3.32469 -2.84181,-3.53119 -4.69661,-1.95153 -0.33465,1.92874 3.27005,3.39423 4.51329,3.92704 0.13132,-0.64931 0.13633,-1.31695 0.18332,-1.97551 z m 3.80762,-0.34124 c 2.11642,-2.23582 -5.40352,-3.4064 -2.70882,0.0813 0.77728,0.70148 2.11862,1.06638 2.70882,-0.0813 z m 0.4943,22.22563 c -0.44839,-1.6684 4.45825,-3.82372 2.02447,-1.61656 -0.65087,0.16027 -1.35475,2.43696 -2.02447,1.61656 z m -20.481691,-1.38116 c -1.186957,-1.19662 -0.08557,-5.46254 0.74522,-5.14789 -0.551771,1.7323 -0.205978,4.00522 -0.397131,5.45419 z m 1.305116,-4.61874 c 0.583047,-1.36264 0.07838,-5.24945 1.214043,-5.26751 0.365122,1.87654 -0.425952,5.12386 -1.2367,6.02506 l -7.53e-4,-0.29994 z m 20.212985,-18.1026 c -2.39874,-1.4114 -4.83558,-3.36644 -5.71491,-6.09176 0.18189,-1.22595 -0.43471,-2.71466 0.29352,-3.798 1.42092,-1.97093 2.90706,-4.52577 5.16913,-5.43655 3.33362,-0.58241 5.4867,2.41294 7.43174,4.60078 1.75074,2.23035 3.37898,5.16168 2.23264,8.04131 -1.48128,2.61779 -4.62483,2.58107 -7.24089,2.63492 -0.71229,0.0427 -1.47507,0.30637 -2.17123,0.0493 z m 7.4836,-1.51655 c 2.43204,-1.27753 1.93773,-4.46218 0.76328,-6.44227 -0.61225,-1.06794 -1.95696,-3.87216 -2.25357,-1.19005 -2.23478,1.66944 -5.1877,-0.26501 -4.16802,-3.11489 -0.38649,-1.49013 2.66875,-1.63972 0.1076,-2.39075 -2.60378,-0.85619 -4.38568,1.75487 -5.79119,3.49239 -1.81389,1.90957 -1.87839,4.97411 -0.2252,6.99587 1.03412,1.54191 2.64266,2.84663 4.4189,3.31063 2.08907,-0.0587 4.25084,0.11955 6.2959,-0.0825 0.2841,-0.19284 0.5682,-0.38567 0.8523,-0.57852 z m -2.45445,-7.88894 c 1.65091,-0.84518 -0.46853,-3.74993 -1.86305,-3.68193 -1.81025,0.58332 -0.86928,5.08938 1.86305,3.68193 z m -16.20904,3.42147 c -0.83177,-0.92369 -2.474588,-5.31377 -0.43369,-2.31969 0.32345,0.29156 1.78368,3.54349 0.43369,2.31969 z m 0.98086,-1.76762 c -0.81002,-1.13569 -1.57377,-5.49669 -0.0847,-2.25821 0.16151,0.4929 1.69631,3.23325 0.0847,2.25821 z m -6.548207,-5.14674 c 0.350108,-0.95907 3.069028,-2.92642 3.762407,-2.31863 1.09212,-0.57261 3.25047,-0.62981 0.97359,0.44505 -1.837237,-0.0242 -3.118153,1.7237 -4.735997,1.87358 z m -1.680745,17.7417 c 2.289157,-1.84745 4.233255,-4.18564 5.667842,-6.74743 1.28386,-1.84928 -2.56269,-4.70219 -3.00529,-3.81855 0.753794,0.83896 3.37664,2.82218 0.660073,1.50846 -1.460199,-2.00717 -3.234593,-4.15544 -6.064858,-3.18576 -1.270446,0.3271 -4.752438,2.1902 -1.684491,2.59259 2.71404,2.70093 -0.531568,5.55274 -3.101706,5.39406 -0.03261,2.80774 2.649693,5.25657 5.467591,4.70527 0.751418,-0.0371 1.479621,0.15699 2.060839,-0.44864 z m -4.956131,-5.70034 c 3.543981,-3.07073 -3.995353,-5.62325 -2.536375,-0.67744 -0.26225,1.57357 1.758146,0.90487 2.536375,0.67744 z m 37.561583,-1.12062 c -0.11471,-1.10745 -2.31904,-4.703 -1.08082,-1.63119 0.095,0.26696 1.44929,3.90292 1.08082,1.63119 z m -17.77917,-18.9253 c 0.49117,-1.01531 3.59427,-2.19971 0.69403,-2.15631 -3.52065,0.0596 -7.25182,-0.26863 -10.49595,1.37786 2.61798,0.21926 5.24008,0.49511 7.81199,1.07369 0.88243,0.22834 1.57847,-3.23679 2.1676,-1.5428 -0.37655,0.52072 -1.21467,3.00991 -0.17767,1.24756 z"
     id="path1"
     style="stroke:#ffffff;stroke-width:0.2;stroke-dasharray:none;stroke-opacity:1" /></g>&#10;</svg>
