<?xml version="1.0" encoding="UTF-8" standalone="no"?>
<svg
   width="50.436249mm"
   height="60.186783mm"
   viewBox="0 0 50.436249 60.186784"
   xml:space="preserve"
   version="1.1"
   id="svg1"
   xmlns="http://www.w3.org/2000/svg"><defs
   id="defs1" />&#10;
    <style id="style1">
        &#10;
        path {&#10;            fill: black;&#10;        }
    </style>&#10;    <path
   style="fill:#fdfffd;fill-opacity:1;stroke:#ffffff;stroke-width:1;stroke-linejoin:bevel;stroke-dasharray:none;paint-order:fill markers stroke"
   d="m 31.054514,0.50004342 c 1.16011,0.052556 2.39968,-0.060858 3.50093,0.3633144 0.8557,1.23484388 1.85196,2.36314038 2.96921,3.37038208 1.84279,1.8050327 3.48699,3.8290338 5.01792,5.9104791 0.79718,1.115514 1.25615,2.426915 1.43195,3.778696 1.0897,3.848628 4.40003,6.709225 5.12446,10.699463 0.41431,5.634574 0.2511,11.335218 0.80526,16.948739 0.21346,1.574623 -0.74597,2.979754 -1.31321,4.389628 -0.74863,1.557391 -1.7216,3.032567 -2.05863,4.757783 -0.35236,1.257987 -0.34508,2.582203 -0.59814,3.851214 -0.92921,0.754194 -2.08279,1.196345 -3.12519,1.789721 -2.50503,1.240179 -5.0071,2.567575 -7.73845,3.230888 -2.40594,0.327768 -4.94372,-0.193157 -7.03869,-1.418085 -1.480733,-0.961935 -2.169569,-2.661105 -3.345559,-3.915767 -0.984108,-0.742879 -2.324718,-0.426403 -3.463073,-0.590489 -2.784023,-0.09455 -5.517774,-0.727422 -8.097882,-1.822075 -1.335242,-0.535559 -2.85163,-0.641246 -4.0143894,-1.536514 -1.370123,-0.857798 -2.335826,-2.20004 -3.674731,-3.085484 -0.503332,-0.10918 -0.568611,0.534871 -0.468212,0.880563 -0.363119,-2.422988 -1.749416,-4.504756 -2.56451,-6.773043 -0.935985,-2.204153 -1.44399196,-4.558876 -1.63121996,-6.940565 -0.395978,-2.77798 -0.235947,-5.593943 -0.255113,-8.393093 0.04478,-1.689765 0.01738,-3.382273 0.229486,-5.060979 0.102188,1.650532 -0.0085,3.329706 0.10465,4.970708 0.64138196,0.474811 0.65895096,-0.911222 0.90931696,-1.320414 0.722977,-1.994743 0.939704,-4.113953 1.084402,-6.215011 0.298452,-2.077998 2.003377,-3.497318 3.152756,-5.132497 0.434544,-0.684498 1.183521,-1.313092 1.218602,-2.169583 -0.269557,-0.662395 -1.18588,-0.555133 -1.773537,-0.599594 -0.613267,0.07462 -0.168545,-0.0847 0.171106,-0.127657 2.479174,-0.18981 4.6985954,-1.6940407 6.1291704,-3.6801084 1.411437,-2.0419153 3.515901,-3.5847107 5.980204,-4.0434264 3.2363,-0.8424829 6.405571,-1.99414188 9.774523,-2.02202028 1.1853,-0.056566 2.36596,-0.096724 3.55659,-0.0951735 z M 5.1985736,49.17444 c 0.0782,0.330835 0.279571,1.035976 0.299175,1.144567 -0.129436,-0.413319 -0.232041,-0.834475 -0.326692,-1.256911 l 0.0252,0.102891 z"
   id="path4" /><path
   d="m 45.319744,54.703086 c 0.81203,-1.586048 -0.0542,-3.188971 -1.82624,-3.250743 1.50146,-1.094893 2.96109,-6.156227 -0.32165,-4.759911 -1.05407,0.477529 -3.98909,3.079877 -4.10077,1.397465 1.96006,-2.217185 5.29071,-3.205299 6.44579,-6.076412 0.64668,-1.881876 -0.26792,-3.566012 -1.94352,-1.702049 -4.16664,2.716276 -7.59204,6.826502 -12.51007,8.205117 -2.60073,0.697915 -5.386331,0.126961 -7.316711,-1.808986 -1.963298,-1.704462 -4.387257,-3.108502 -7.082542,-2.57263 -1.784038,0.737446 2.211691,2.141805 3.158575,2.496181 3.284738,1.115832 4.195143,4.796306 5.066389,7.749258 -2.282282,-0.237665 -2.052314,-3.967849 -3.538856,-5.491312 -1.62749,-2.114166 -5.110008,-1.69259 -6.446014,-4.057847 0.439849,-3.736682 5.519713,-1.777121 7.61829,-0.588848 1.616127,0.80966 2.875064,2.292214 4.361818,3.188678 2.994251,-0.0623 6.181651,-0.251331 8.602871,-2.246171 3.38831,-2.338047 6.053,-6.046626 10.2749,-6.921167 1.74986,1.418384 1.25704,4.534935 -0.25602,6.063647 -1.63778,0.929697 0.76668,1.572838 0.88425,2.726921 1.11392,-0.491914 2.83029,-3.762699 2.76272,-5.639989 -0.50532,-5.707877 0.16372,-11.632739 -1.91548,-17.095087 -1.47086,-4.62061 -3.91963,-8.830694 -5.87868,-13.243029 0.65607,0.09231 2.4207,3.760436 1.44452,0.714846 -0.60513,-1.9116585 -3.22098,-1.24094 -3.0587,-3.6779845 -1.53681,-4.106486 -5.5289,-6.969444 -9.80048,-7.58813098 -1.12942,1.35552898 -0.16816,3.51312998 1.37833,1.93029298 0.46922,0.458197 3.5722,2.162369 1.53607,1.97427 -1.98727,-0.236919 -3.58262,0.686579 -3.72181,2.836385 -1.928333,-0.594391 -2.481718,2.586016 -3.403252,4.0973695 -0.324207,0.551612 -1.671693,3.360826 -1.773648,2.013536 -0.659414,-2.819864 1.355467,-5.1010355 3.308977,-6.8130885 1.879573,-1.106597 2.492453,-3.165384 -0.421415,-2.675535 -3.662334,-0.322201 -7.529032,-1.329424 -11.115602,-0.09953 -2.704574,1.152297 -4.069344,3.928959 -5.9459054,6.035051 1.1738884,0.2662135 3.3720734,2.2816585 0.8092554,1.7300385 -3.1328254,-1.160037 -4.6608674,3.37097 -6.6375814,5.099386 -0.4962,2.825681 -0.912157,5.664887 -1.895166,8.388937 -0.536568,5.860231 0.406407,11.788099 2.050489,17.398649 -2.199634,-3.610036 -2.647168,-8.05587 -2.874364,-12.226307 -0.03034,-3.118156 -0.67201896,2.448152 -0.35048696,3.628811 0.28620496,3.393729 1.13931496,6.780432 2.69701496,9.816488 2.050222,0.954585 2.720071,4.01663 4.702688,5.441798 1.243377,1.280728 2.9276374,1.967759 4.5721994,2.575222 -2.702891,0.07554 -4.9300224,-1.694934 -6.6370954,-3.620604 -2.395133,-2.503081 -0.09203,2.857329 -0.120317,3.920686 -1.475387,-1.775624 -1.059435,-4.537087 -2.142374,-6.590234 -1.588117,-3.331495 -3.17464296,-6.764993 -3.32222696,-10.521278 -0.772296,-4.568825 -0.290411,-9.213513 -0.202392,-13.810926 0.88704596,-1.850248 0.49891,2.270517 0.58867196,3.338543 0.0084,0.913684 -0.08589,2.49053 0.330258,0.768225 0.850146,-2.230291 1.262941,-4.574722 1.203049,-6.96213 0.728793,-2.696047 3.190801,-4.425461 4.452229,-6.82036 0.420327,-1.4990345 -4.983547,0.09477 -1.781786,-1.208602 2.755825,-0.115914 5.0481364,-1.6576325 6.5646074,-3.9173865 1.542377,-2.269288 4.005634,-3.622028 6.689336,-4.008941 2.892129,-0.862976 5.783093,-1.82338298 8.839456,-1.86281998 2.478241,-0.01628 5.104221,-0.501106 7.482261,0.325568 1.15293,2.39772698 3.77927,3.80025698 5.29984,6.02017198 1.67972,2.091168 3.84435,4.1202235 4.00982,6.9712865 1.03938,4.062638 4.75274,7.000694 5.25268,11.221818 0.39614,5.271429 0.12693,10.582312 0.66886,15.839072 0.71786,2.17457 -1.00188,4.390526 -1.76572,6.406466 -1.50525,2.134976 -1.86382,4.606793 -2.01847,7.126756 0.12247,0.468802 -1.10028,1.322806 -0.93087,0.411095 z m 3.27882,-30.164518 c -0.18741,-1.500593 -1.20438,-4.133861 -2.23482,-4.441447 0.53914,1.621175 1.6329,5.554129 2.36211,5.440677 l -0.0492,-0.458025 z M 28.179954,1.9214795 c 0.55019,-2.71076198 -4.251316,-0.221296 -5.852282,-0.262151 -1.5757,0.179746 -2.446201,1.190596 -0.231747,0.938883 1.921172,0.201061 3.81643,0.670953 5.761379,0.604118 0.10755,-0.42695 0.2151,-0.8539 0.32265,-1.28085 z m 0.2644,36.0763145 c 0.85595,-1.092529 3.51383,-0.853985 1.12346,0.134426 -0.22371,0.106219 -1.99494,0.700566 -1.12346,-0.134426 z M 11.220521,29.802337 C 7.7353356,28.877952 7.0118156,24.608112 7.2806106,21.523412 c -0.147561,-3.048488 2.355487,-5.021739 5.1318234,-5.60075 2.5557,-0.77159 5.566549,-0.182761 7.207134,2.049889 2.947353,1.547322 0.868172,5.363471 -0.551014,7.322966 -1.631319,1.860414 -3.333807,4.093018 -5.819494,4.755186 -0.685136,0.08219 -1.370108,-0.0747 -2.028539,-0.248366 z m 4.25376,-1.546914 c 0.920988,-0.546807 3.783815,-3.447478 2.274481,-3.45686 -2.219484,1.631994 -4.862022,2.47502 -7.550094,2.930275 -1.2923934,1.676575 4.537225,1.943171 5.275613,0.526585 z m -2.749849,-1.590839 c 3.157764,-0.871855 6.760973,-2.56129 7.745269,-5.965822 -1.37632,1.342717 -3.858186,1.478187 -4.851588,-0.409363 -0.332264,-1.334266 -0.266371,-2.864223 -2.085914,-1.711226 -2.284327,0.881352 -4.5396794,2.233476 -5.9770474,4.258925 1.932514,0.657046 -0.572162,5.689411 2.9684014,4.292573 0.738766,-0.128887 1.473646,-0.281806 2.200879,-0.465087 z m -0.812463,-7.844677 c 1.136132,-0.82924 4.173114,-0.993371 4.328661,-2.018362 -2.89352,-1.34929 -6.9995704,-0.01471 -7.9422044,3.16942 -0.469486,1.926924 0.811119,0.473119 1.653802,-0.05964 0.6291944,-0.404329 1.2794604,-0.779409 1.9597414,-1.091418 z m 6.996487,1.771753 c 0.403242,-2.050085 -3.074996,-4.528128 -2.445108,-1.229412 0.231112,0.939282 1.537939,1.88968 2.445108,1.229412 z m 1.465948,-0.867022 c -0.549989,-2.361365 -2.205095,1.049185 0,0 z m 15.76185,4.813958 c -3.74776,-0.53738 -8.16595,-2.782726 -8.706845,-6.926417 -0.542359,-2.66693 1.451265,-4.686227 3.237485,-6.327958 1.16668,-2.0294495 2.6327,-4.2231495 5.3291,-2.7350925 2.81291,1.5663825 4.5403,4.5243375 6.11729,7.2377015 1.27401,2.314344 2.18363,5.790392 -0.25776,7.692799 -1.57436,1.316645 -3.78983,1.361238 -5.71927,1.058967 z m 4.70804,-1.453979 c 1.60577,-0.74448 2.06605,-2.750926 -0.21025,-1.641669 -2.72708,0.558058 -5.77562,0.539841 -8.37611,0.903375 2.26134,1.72424 5.40693,1.45846 8.05063,0.996001 l 0.26617,-0.114816 z m -3.32809,-1.722221 c 1.66134,-0.170061 3.29301,-0.531345 4.90992,-0.93853 0.22486,-2.033286 -0.38226,-4.709902 -2.96268,-3.37912 -2.55841,-0.177429 -1.80357,-3.411764 -2.63342,-4.319929 -3.65329,-0.817424 -7.10863,1.77285 -8.7067,4.879414 1.1273,2.237325 2.72451,4.272159 5.48073,3.858421 1.30392,0.133799 2.6126,0.02798 3.91215,-0.100256 z m 3.396,-5.474303 c 0.49394,-3.097749 -4.4025,-3.559365 -2.03671,-0.242716 0.52342,0.569752 1.38568,0.604467 2.03671,0.242716 z m -7.83983,-3.483098 c 1.39669,-1.044141 4.25023,0.05486 4.9704,-0.789585 -1.07655,-2.8605905 -4.67364,-2.1117055 -6.35245,-0.278641 -0.82631,0.722129 -3.33955,3.246937 -2.46398,3.226894 1.24475,-0.781617 2.4591,-1.640548 3.84603,-2.158668 z"
   id="path2" />&#10;</svg>
