<?xml version="1.0" encoding="UTF-8"?>
<svg width="50.436mm" height="60.187mm" version="1.1" viewBox="0 0 50.436 60.187" xml:space="preserve" xmlns="http://www.w3.org/2000/svg">
    <style>
        path {
            fill: black;
        }
        @media (prefers-color-scheme: dark) {
            path { fill: white; }
        }
    </style>
    <path d="m31.055 0.50004c1.1601 0.052556 2.3997-0.060858 3.5009 0.36331 0.8557 1.2348 1.852 2.3631 2.9692 3.3704 1.8428 1.805 3.487 3.829 5.0179 5.9105 0.79718 1.1155 1.2562 2.4269 1.432 3.7787 1.0897 3.8486 4.4 6.7092 5.1245 10.699 0.41431 5.6346 0.2511 11.335 0.80526 16.949 0.21346 1.5746-0.74597 2.9798-1.3132 4.3896-0.74863 1.5574-1.7216 3.0326-2.0586 4.7578-0.35236 1.258-0.34508 2.5822-0.59814 3.8512-0.92921 0.75419-2.0828 1.1963-3.1252 1.7897-2.505 1.2402-5.0071 2.5676-7.7384 3.2309-2.4059 0.32777-4.9437-0.19316-7.0387-1.4181-1.4807-0.96194-2.1696-2.6611-3.3456-3.9158-0.98411-0.74288-2.3247-0.4264-3.4631-0.59049-2.784-0.09455-5.5178-0.72742-8.0979-1.8221-1.3352-0.53556-2.8516-0.64125-4.0144-1.5365-1.3701-0.8578-2.3358-2.2-3.6747-3.0855-0.50333-0.10918-0.56861 0.53487-0.46821 0.88056-0.36312-2.423-1.7494-4.5048-2.5645-6.773-0.93598-2.2042-1.444-4.5589-1.6312-6.9406-0.39598-2.778-0.23595-5.5939-0.25511-8.3931 0.04478-1.6898 0.01738-3.3823 0.22949-5.061 0.10219 1.6505-0.0085 3.3297 0.10465 4.9707 0.64138 0.47481 0.65895-0.91122 0.90932-1.3204 0.72298-1.9947 0.9397-4.114 1.0844-6.215 0.29845-2.078 2.0034-3.4973 3.1528-5.1325 0.43454-0.6845 1.1835-1.3131 1.2186-2.1696-0.26956-0.6624-1.1859-0.55513-1.7735-0.59959-0.61327 0.07462-0.16854-0.0847 0.17111-0.12766 2.4792-0.18981 4.6986-1.694 6.1292-3.6801 1.4114-2.0419 3.5159-3.5847 5.9802-4.0434 3.2363-0.84248 6.4056-1.9941 9.7745-2.022 1.1853-0.056566 2.366-0.096724 3.5566-0.095174zm-25.856 48.674c0.0782 0.33084 0.27957 1.036 0.29918 1.1446-0.12944-0.41332-0.23204-0.83448-0.32669-1.2569l0.0252 0.10289z" fill="#fdfffd" stroke="#fff" stroke-linejoin="bevel" style="paint-order:fill markers stroke"/><path d="m45.32 54.703c0.81203-1.586-0.0542-3.189-1.8262-3.2507 1.5015-1.0949 2.9611-6.1562-0.32165-4.7599-1.0541 0.47753-3.9891 3.0799-4.1008 1.3975 1.9601-2.2172 5.2907-3.2053 6.4458-6.0764 0.64668-1.8819-0.26792-3.566-1.9435-1.702-4.1666 2.7163-7.592 6.8265-12.51 8.2051-2.6007 0.69792-5.3863 0.12696-7.3167-1.809-1.9633-1.7045-4.3873-3.1085-7.0825-2.5726-1.784 0.73745 2.2117 2.1418 3.1586 2.4962 3.2847 1.1158 4.1951 4.7963 5.0664 7.7493-2.2823-0.23766-2.0523-3.9678-3.5389-5.4913-1.6275-2.1142-5.11-1.6926-6.446-4.0578 0.43985-3.7367 5.5197-1.7771 7.6183-0.58885 1.6161 0.80966 2.8751 2.2922 4.3618 3.1887 2.9943-0.0623 6.1817-0.25133 8.6029-2.2462 3.3883-2.338 6.053-6.0466 10.275-6.9212 1.7499 1.4184 1.257 4.5349-0.25602 6.0636-1.6378 0.9297 0.76668 1.5728 0.88425 2.7269 1.1139-0.49191 2.8303-3.7627 2.7627-5.64-0.50532-5.7079 0.16372-11.633-1.9155-17.095-1.4709-4.6206-3.9196-8.8307-5.8787-13.243 0.65607 0.09231 2.4207 3.7604 1.4445 0.71485-0.60513-1.9117-3.221-1.2409-3.0587-3.678-1.5368-4.1065-5.5289-6.9694-9.8005-7.5881-1.1294 1.3555-0.16816 3.5131 1.3783 1.9303 0.46922 0.4582 3.5722 2.1624 1.5361 1.9743-1.9873-0.23692-3.5826 0.68658-3.7218 2.8364-1.9283-0.59439-2.4817 2.586-3.4033 4.0974-0.32421 0.55161-1.6717 3.3608-1.7736 2.0135-0.65941-2.8199 1.3555-5.101 3.309-6.8131 1.8796-1.1066 2.4925-3.1654-0.42142-2.6755-3.6623-0.3222-7.529-1.3294-11.116-0.09953-2.7046 1.1523-4.0693 3.929-5.9459 6.0351 1.1739 0.26621 3.3721 2.2817 0.80926 1.73-3.1328-1.16-4.6609 3.371-6.6376 5.0994-0.4962 2.8257-0.91216 5.6649-1.8952 8.3889-0.53657 5.8602 0.40641 11.788 2.0505 17.399-2.1996-3.61-2.6472-8.0559-2.8744-12.226-0.03034-3.1182-0.67202 2.4482-0.35049 3.6288 0.2862 3.3937 1.1393 6.7804 2.697 9.8165 2.0502 0.95458 2.7201 4.0166 4.7027 5.4418 1.2434 1.2807 2.9276 1.9678 4.5722 2.5752-2.7029 0.07554-4.93-1.6949-6.6371-3.6206-2.3951-2.5031-0.09203 2.8573-0.12032 3.9207-1.4754-1.7756-1.0594-4.5371-2.1424-6.5902-1.5881-3.3315-3.1746-6.765-3.3222-10.521-0.7723-4.5688-0.29041-9.2135-0.20239-13.811 0.88705-1.8502 0.49891 2.2705 0.58867 3.3385 0.0084 0.91368-0.08589 2.4905 0.33026 0.76822 0.85015-2.2303 1.2629-4.5747 1.203-6.9621 0.72879-2.696 3.1908-4.4255 4.4522-6.8204 0.42033-1.499-4.9835 0.09477-1.7818-1.2086 2.7558-0.11591 5.0481-1.6576 6.5646-3.9174 1.5424-2.2693 4.0056-3.622 6.6893-4.0089 2.8921-0.86298 5.7831-1.8234 8.8395-1.8628 2.4782-0.01628 5.1042-0.50111 7.4823 0.32557 1.1529 2.3977 3.7793 3.8003 5.2998 6.0202 1.6797 2.0912 3.8444 4.1202 4.0098 6.9713 1.0394 4.0626 4.7527 7.0007 5.2527 11.222 0.39614 5.2714 0.12693 10.582 0.66886 15.839 0.71786 2.1746-1.0019 4.3905-1.7657 6.4065-1.5052 2.135-1.8638 4.6068-2.0185 7.1268 0.12247 0.4688-1.1003 1.3228-0.93087 0.4111zm3.2788-30.165c-0.18741-1.5006-1.2044-4.1339-2.2348-4.4414 0.53914 1.6212 1.6329 5.5541 2.3621 5.4407l-0.0492-0.45802zm-20.419-22.617c0.55019-2.7108-4.2513-0.2213-5.8523-0.26215-1.5757 0.17975-2.4462 1.1906-0.23175 0.93888 1.9212 0.20106 3.8164 0.67095 5.7614 0.60412 0.10755-0.42695 0.2151-0.8539 0.32265-1.2808zm0.2644 36.076c0.85595-1.0925 3.5138-0.85398 1.1235 0.13443-0.22371 0.10622-1.9949 0.70057-1.1235-0.13443zm-17.224-8.1955c-3.4852-0.92438-4.2087-5.1942-3.9399-8.2789-0.14756-3.0485 2.3555-5.0217 5.1318-5.6008 2.5557-0.77159 5.5665-0.18276 7.2071 2.0499 2.9474 1.5473 0.86817 5.3635-0.55101 7.323-1.6313 1.8604-3.3338 4.093-5.8195 4.7552-0.68514 0.08219-1.3701-0.0747-2.0285-0.24837zm4.2538-1.5469c0.92099-0.54681 3.7838-3.4475 2.2745-3.4569-2.2195 1.632-4.862 2.475-7.5501 2.9303-1.2924 1.6766 4.5372 1.9432 5.2756 0.52658zm-2.7498-1.5908c3.1578-0.87186 6.761-2.5613 7.7453-5.9658-1.3763 1.3427-3.8582 1.4782-4.8516-0.40936-0.33226-1.3343-0.26637-2.8642-2.0859-1.7112-2.2843 0.88135-4.5397 2.2335-5.977 4.2589 1.9325 0.65705-0.57216 5.6894 2.9684 4.2926 0.73877-0.12889 1.4736-0.28181 2.2009-0.46509zm-0.81246-7.8447c1.1361-0.82924 4.1731-0.99337 4.3287-2.0184-2.8935-1.3493-6.9996-0.01471-7.9422 3.1694-0.46949 1.9269 0.81112 0.47312 1.6538-0.05964 0.62919-0.40433 1.2795-0.77941 1.9597-1.0914zm6.9965 1.7718c0.40324-2.0501-3.075-4.5281-2.4451-1.2294 0.23111 0.93928 1.5379 1.8897 2.4451 1.2294zm1.4659-0.86702c-0.54999-2.3614-2.2051 1.0492 0 0zm15.762 4.814c-3.7478-0.53738-8.166-2.7827-8.7068-6.9264-0.54236-2.6669 1.4513-4.6862 3.2375-6.328 1.1667-2.0294 2.6327-4.2231 5.3291-2.7351 2.8129 1.5664 4.5403 4.5243 6.1173 7.2377 1.274 2.3143 2.1836 5.7904-0.25776 7.6928-1.5744 1.3166-3.7898 1.3612-5.7193 1.059zm4.708-1.454c1.6058-0.74448 2.066-2.7509-0.21025-1.6417-2.7271 0.55806-5.7756 0.53984-8.3761 0.90338 2.2613 1.7242 5.4069 1.4585 8.0506 0.996l0.26617-0.11482zm-3.3281-1.7222c1.6613-0.17006 3.293-0.53134 4.9099-0.93853 0.22486-2.0333-0.38226-4.7099-2.9627-3.3791-2.5584-0.17743-1.8036-3.4118-2.6334-4.3199-3.6533-0.81742-7.1086 1.7728-8.7067 4.8794 1.1273 2.2373 2.7245 4.2722 5.4807 3.8584 1.3039 0.1338 2.6126 0.02798 3.9122-0.10026zm3.396-5.4743c0.49394-3.0977-4.4025-3.5594-2.0367-0.24272 0.52342 0.56975 1.3857 0.60447 2.0367 0.24272zm-7.8398-3.4831c1.3967-1.0441 4.2502 0.05486 4.9704-0.78958-1.0766-2.8606-4.6736-2.1117-6.3524-0.27864-0.82631 0.72213-3.3396 3.2469-2.464 3.2269 1.2448-0.78162 2.4591-1.6405 3.846-2.1587z"/>
</svg>
