<?xml version="1.0" encoding="UTF-8" standalone="no"?>
<svg
   version="1.1"
   width="50mm"
   height="54.881512mm"
   viewBox="0 0 50 54.881513"
   id="svg102"
   xml:space="preserve"
   xmlns="http://www.w3.org/2000/svg"
   xmlns:svg="http://www.w3.org/2000/svg"><defs
     id="defs106" /><style
     type="text/css"
     id="style2">&#10;    path {&#10;        fill: currentColor;&#10;        stroke-linecap: butt;&#10;        stroke-linejoin: bevel;&#10;        stroke-dasharray: none;&#10;    }&#10;    path.outer {&#10;        stroke: #ff0000;&#10;        stroke-dasharray: none;&#10;        stroke-dashoffset: 0;&#10;        stroke-width: 0.3;&#10;        stroke-opacity: 1.0;&#10;    }&#10;    path.convex {&#10;        stroke: #00ffff;&#10;        stroke-dasharray: none;&#10;        stroke-dashoffset:0;&#10;        stroke-width:0.2;&#10;        stroke-opacity: 1.0&#10;    }&#10;    path.concave {&#10;        stroke: #ff00ff;&#10;        stroke-dasharray: none;&#10;        stroke-dashoffset: 0;&#10;        stroke-width: 0.2;&#10;        stroke-opacity: 1.0&#10;    }&#10;    path.freestyle {&#10;        stroke: #00ff00;&#10;        stroke-dasharray: none;&#10;        stroke-dashoffset: 0;&#10;        stroke-width: 0.2;&#10;        stroke-opacity: 1.0&#10;    }&#10;    path.outer_background {&#10;        stroke: #ffffff;&#10;        stroke-opacity: 1.0;&#10;        stroke-width: 0.5&#10;    }&#10;    path.inner_background {&#10;        stroke: #ffffff;&#10;        stroke-opacity: 1.0;&#10;        stroke-width: 0.2&#10;    }&#10;    path.sticker {&#10;        fill: #e5e5e5;&#10;        stroke: none;&#10;        fill-opacity: 0.0;&#10;    }&#10;    path.arrow {&#10;        fill: #000000;&#10;    }&#10;    text {&#10;        font-style: normal;&#10;        fill: #000000;&#10;        fill-opacity: 1.0;&#10;        stroke: none;&#10;    }&#10;    text, tspan {&#10;        text-anchor:middle;&#10;    }&#10;    </style><path
     style="fill:currentColor;stroke-width:0.806833"
     d="m 45.113431,54.478218 c 0.812026,-1.586048 -0.05425,-3.188971 -1.826243,-3.250743 1.501461,-1.094893 2.961094,-6.156227 -0.321645,-4.759911 -1.054067,0.477529 -3.98909,3.079877 -4.100771,1.397465 1.960055,-2.217185 5.290709,-3.205299 6.445792,-6.076412 0.646682,-1.881876 -0.26792,-3.566012 -1.943522,-1.702049 -4.166641,2.716276 -7.59204,6.826502 -12.510074,8.205117 -2.60073,0.697915 -5.386327,0.126961 -7.316707,-1.808986 -1.963298,-1.704462 -4.387257,-3.108502 -7.082542,-2.57263 -1.784038,0.737446 2.211691,2.141805 3.158575,2.496181 3.284738,1.115832 4.195143,4.796306 5.066389,7.749258 -2.282282,-0.237665 -2.052314,-3.967849 -3.538856,-5.491312 -1.62749,-2.114166 -5.110008,-1.69259 -6.446014,-4.057847 0.439849,-3.736682 5.519713,-1.777121 7.61829,-0.588848 1.616127,0.80966 2.875064,2.292214 4.361818,3.188678 2.994246,-0.0623 6.181646,-0.251331 8.602869,-2.246171 3.388308,-2.338047 6.053002,-6.046626 10.274897,-6.921167 1.749866,1.418384 1.257048,4.534935 -0.256014,6.063647 -1.637783,0.929697 0.766679,1.572838 0.884248,2.726921 1.113923,-0.491914 2.830291,-3.762699 2.762718,-5.639989 -0.505321,-5.707877 0.163721,-11.632739 -1.91548,-17.095087 -1.470856,-4.62061 -3.919629,-8.830694 -5.878682,-13.243029 0.656073,0.09231 2.420703,3.760436 1.444524,0.714846 C 41.991867,9.6544915 39.376022,10.32521 39.5383,7.8881655 38.001495,3.7816795 34.009403,0.91872148 29.737821,0.30003448 28.608399,1.6555635 29.56966,3.8131645 31.116149,2.2303275 c 0.469224,0.458197 3.572205,2.162369 1.536068,1.97427 -1.987261,-0.236919 -3.582612,0.686579 -3.721808,2.836385 -1.92833,-0.594391 -2.481715,2.586016 -3.403249,4.0973695 -0.324207,0.551612 -1.671693,3.360826 -1.773648,2.013536 -0.659414,-2.819864 1.355467,-5.1010355 3.308977,-6.8130885 1.879571,-1.106597 2.492455,-3.165384 -0.421415,-2.675535 -3.662334,-0.322201 -7.529032,-1.329424 -11.115602,-0.09953 -2.704574,1.152297 -4.069344,3.928959 -5.9459047,6.035051 1.1738877,0.266213 3.3720727,2.2816585 0.8092547,1.7300385 -3.1328247,-1.160037 -4.6608667,3.37097 -6.6375807,5.099386 -0.4962,2.825681 -0.912157,5.664887 -1.895166,8.388937 -0.536568,5.860231 0.406407,11.788099 2.050489,17.398649 -2.199634,-3.610036 -2.647168,-8.05587 -2.874364,-12.226307 -0.03034,-3.118156 -0.67201898,2.448152 -0.35048698,3.628811 0.286205,3.393729 1.13931498,6.780432 2.69701498,9.816488 2.050222,0.954585 2.720071,4.01663 4.702688,5.441798 1.243377,1.280728 2.9276367,1.967759 4.5721987,2.575222 -2.7028907,0.07554 -4.9300217,-1.694934 -6.6370947,-3.620604 -2.395133,-2.503081 -0.09203,2.857329 -0.120317,3.920686 -1.475387,-1.775624 -1.059435,-4.537087 -2.142374,-6.590234 -1.588117,-3.331495 -3.17464298,-6.764993 -3.32222698,-10.521278 -0.772296,-4.568825 -0.290411,-9.213513 -0.202392,-13.810926 0.88704598,-1.850248 0.49891,2.270517 0.588672,3.338543 0.0084,0.913684 -0.08589,2.49053 0.33025798,0.768225 0.850146,-2.230291 1.262941,-4.574722 1.203049,-6.96213 0.728793,-2.696047 3.190801,-4.425461 4.452229,-6.82036 0.420327,-1.4990345 -4.983547,0.09477 -1.781786,-1.2086025 2.755825,-0.115914 5.0481357,-1.657632 6.5646067,-3.917386 1.542377,-2.269288 4.005634,-3.622028 6.689336,-4.008941 2.892129,-0.862976 5.783093,-1.82338302 8.839456,-1.86282002 2.47824,-0.01628 5.104221,-0.501106 7.482263,0.325568 1.152925,2.39772702 3.779272,3.80025702 5.299837,6.02017202 1.679718,2.091168 3.84435,4.1202235 4.009817,6.9712865 1.039383,4.062638 4.752744,7.000694 5.252682,11.221818 0.396137,5.271429 0.126932,10.582312 0.668865,15.839072 0.717853,2.17457 -1.001886,4.390526 -1.765722,6.406466 -1.505255,2.134976 -1.86382,4.606793 -2.018473,7.126756 0.12247,0.468802 -1.100276,1.322806 -0.930869,0.411095 z M 48.392248,24.3137 c -0.187411,-1.500593 -1.20438,-4.133861 -2.234813,-4.441447 0.539137,1.621175 1.632892,5.554129 2.362104,5.440677 l -0.04915,-0.458025 z M 27.973637,1.6966115 c 0.550194,-2.710762 -4.251311,-0.221296 -5.852277,-0.262151 -1.5757,0.179746 -2.446201,1.190596 -0.231747,0.938883 1.921172,0.201061 3.81643,0.670953 5.76138,0.604118 0.107548,-0.42695 0.215096,-0.8539 0.322644,-1.28085 z m 0.2644,36.0763145 c 0.855958,-1.092529 3.513838,-0.853985 1.123469,0.134426 -0.223715,0.106219 -1.994948,0.700566 -1.123469,-0.134426 z M 11.014209,29.577469 C 7.5290243,28.653084 6.8055043,24.383244 7.0742993,21.298544 c -0.147561,-3.048488 2.355487,-5.021739 5.1318227,-5.60075 2.5557,-0.77159 5.566549,-0.182761 7.207134,2.049889 2.947353,1.547322 0.868172,5.363471 -0.551014,7.322966 -1.631319,1.860414 -3.333807,4.093018 -5.819494,4.755186 -0.685136,0.08219 -1.370108,-0.0747 -2.028539,-0.248366 z m 4.25376,-1.546914 c 0.920988,-0.546807 3.783815,-3.447478 2.274481,-3.45686 -2.219484,1.631994 -4.862022,2.47502 -7.5500937,2.930275 -1.292393,1.676575 4.5372247,1.943171 5.2756127,0.526585 z M 12.51812,26.439716 c 3.157764,-0.871855 6.760973,-2.56129 7.745269,-5.965822 -1.37632,1.342717 -3.858186,1.478187 -4.851588,-0.409363 -0.332264,-1.334266 -0.266371,-2.864223 -2.085914,-1.711226 -2.284327,0.881352 -4.5396787,2.233476 -5.9770467,4.258925 1.932514,0.657046 -0.572162,5.689411 2.9684007,4.292573 0.738766,-0.128887 1.473646,-0.281806 2.200879,-0.465087 z m -0.812463,-7.844677 c 1.136132,-0.82924 4.173114,-0.993371 4.328661,-2.018362 -2.89352,-1.34929 -6.9995697,-0.01471 -7.9422037,3.16942 -0.469486,1.926924 0.811119,0.473119 1.653802,-0.05964 0.6291937,-0.404329 1.2794597,-0.779409 1.9597407,-1.091418 z m 6.996487,1.771753 c 0.403242,-2.050085 -3.074996,-4.528128 -2.445108,-1.229412 0.231112,0.939282 1.537939,1.88968 2.445108,1.229412 z m 1.465948,-0.867022 c -0.549989,-2.361365 -2.205095,1.049185 0,0 z m 15.76185,4.813958 c -3.74776,-0.53738 -8.16595,-2.782726 -8.706845,-6.926417 -0.542359,-2.66693 1.451261,-4.686227 3.237481,-6.327958 1.166681,-2.0294495 2.632706,-4.2231495 5.329103,-2.7350925 2.812914,1.566382 4.540301,4.5243375 6.117293,7.2377015 1.27401,2.314344 2.183629,5.790392 -0.257762,7.692799 -1.574356,1.316645 -3.789833,1.361238 -5.71927,1.058967 z m 4.708041,-1.453979 c 1.60577,-0.74448 2.066053,-2.750926 -0.210256,-1.641669 -2.727073,0.558058 -5.775611,0.539841 -8.376105,0.903375 2.261344,1.72424 5.406932,1.45846 8.050631,0.996001 l 0.266168,-0.114816 z m -3.32809,-1.722221 c 1.66134,-0.170061 3.293013,-0.531345 4.909919,-0.93853 0.224855,-2.033286 -0.382263,-4.709902 -2.962681,-3.37912 -2.558409,-0.177429 -1.803573,-3.411764 -2.633418,-4.319929 -3.653292,-0.817424 -7.108633,1.77285 -8.706699,4.879414 1.127299,2.237325 2.72451,4.272159 5.480727,3.858421 1.303924,0.133799 2.612601,0.02798 3.912152,-0.100256 z m 3.395994,-5.474303 c 0.493942,-3.097749 -4.402498,-3.559365 -2.036708,-0.242716 0.523427,0.569752 1.385687,0.604467 2.036708,0.242716 z m -7.839822,-3.483098 c 1.396687,-1.044141 4.250222,0.05486 4.970393,-0.789585 -1.076548,-2.8605905 -4.673641,-2.1117055 -6.352451,-0.278641 -0.826305,0.722129 -3.339543,3.246937 -2.463977,3.226894 1.244756,-0.781617 2.459098,-1.640548 3.846035,-2.158668 z"
     id="path2" /></svg>
